<mxfile host="app.diagrams.net" agent="Mozilla/5.0 (Windows NT 10.0; Win64; x64) AppleWebKit/537.36 (KHTML, like Gecko) Chrome/128.0.0.0 Safari/537.36" version="24.7.12">
  <diagram name="Страница — 1" id="7qczHhH6JkZ31Ca4RmtT">
    <mxGraphModel dx="2086" dy="662" grid="1" gridSize="10" guides="1" tooltips="1" connect="1" arrows="1" fold="1" page="1" pageScale="1" pageWidth="827" pageHeight="1169" math="0" shadow="0">
      <root>
        <mxCell id="0" />
        <mxCell id="1" parent="0" />
        <mxCell id="SKn-gwGTb66ZYDygB59r-22" style="edgeStyle=orthogonalEdgeStyle;rounded=0;orthogonalLoop=1;jettySize=auto;html=1;" edge="1" parent="1" source="SKn-gwGTb66ZYDygB59r-1" target="SKn-gwGTb66ZYDygB59r-12">
          <mxGeometry relative="1" as="geometry" />
        </mxCell>
        <mxCell id="SKn-gwGTb66ZYDygB59r-23" style="edgeStyle=orthogonalEdgeStyle;rounded=0;orthogonalLoop=1;jettySize=auto;html=1;startArrow=open;startFill=0;endArrow=classic;endFill=1;" edge="1" parent="1" source="SKn-gwGTb66ZYDygB59r-1" target="SKn-gwGTb66ZYDygB59r-21">
          <mxGeometry relative="1" as="geometry" />
        </mxCell>
        <mxCell id="SKn-gwGTb66ZYDygB59r-1" value="RoadmapController" style="rounded=1;whiteSpace=wrap;html=1;" vertex="1" parent="1">
          <mxGeometry x="-250" y="147" width="520" height="60" as="geometry" />
        </mxCell>
        <mxCell id="SKn-gwGTb66ZYDygB59r-2" value="&lt;font style=&quot;font-size: 24px;&quot;&gt;Backend&amp;nbsp;&lt;span style=&quot;background-color: initial;&quot;&gt;Architecture&lt;/span&gt;&lt;/font&gt;" style="text;html=1;align=center;verticalAlign=middle;resizable=0;points=[];autosize=1;strokeColor=none;fillColor=none;" vertex="1" parent="1">
          <mxGeometry x="-115" y="30" width="250" height="40" as="geometry" />
        </mxCell>
        <mxCell id="SKn-gwGTb66ZYDygB59r-28" style="edgeStyle=orthogonalEdgeStyle;rounded=0;orthogonalLoop=1;jettySize=auto;html=1;entryX=1;entryY=0.25;entryDx=0;entryDy=0;exitX=0;exitY=0.25;exitDx=0;exitDy=0;endArrow=open;endFill=0;" edge="1" parent="1" source="SKn-gwGTb66ZYDygB59r-12" target="SKn-gwGTb66ZYDygB59r-27">
          <mxGeometry relative="1" as="geometry" />
        </mxCell>
        <mxCell id="SKn-gwGTb66ZYDygB59r-29" style="edgeStyle=orthogonalEdgeStyle;rounded=0;orthogonalLoop=1;jettySize=auto;html=1;dashed=1;dashPattern=8 8;endArrow=open;endFill=0;" edge="1" parent="1" source="SKn-gwGTb66ZYDygB59r-12" target="SKn-gwGTb66ZYDygB59r-21">
          <mxGeometry relative="1" as="geometry" />
        </mxCell>
        <mxCell id="SKn-gwGTb66ZYDygB59r-41" value="If necessary" style="edgeLabel;html=1;align=center;verticalAlign=middle;resizable=0;points=[];fontStyle=0;fontFamily=Courier New;" vertex="1" connectable="0" parent="SKn-gwGTb66ZYDygB59r-29">
          <mxGeometry x="-0.1034" y="2" relative="1" as="geometry">
            <mxPoint as="offset" />
          </mxGeometry>
        </mxCell>
        <mxCell id="SKn-gwGTb66ZYDygB59r-34" style="edgeStyle=orthogonalEdgeStyle;rounded=0;orthogonalLoop=1;jettySize=auto;html=1;entryX=0.25;entryY=0;entryDx=0;entryDy=0;exitX=0.25;exitY=1;exitDx=0;exitDy=0;endArrow=open;endFill=0;" edge="1" parent="1" source="SKn-gwGTb66ZYDygB59r-12" target="SKn-gwGTb66ZYDygB59r-16">
          <mxGeometry relative="1" as="geometry" />
        </mxCell>
        <mxCell id="SKn-gwGTb66ZYDygB59r-12" value="RoadmapTaskService" style="rounded=0;whiteSpace=wrap;html=1;" vertex="1" parent="1">
          <mxGeometry x="-280" y="257" width="135" height="60" as="geometry" />
        </mxCell>
        <mxCell id="SKn-gwGTb66ZYDygB59r-38" style="edgeStyle=orthogonalEdgeStyle;rounded=0;orthogonalLoop=1;jettySize=auto;html=1;entryX=1;entryY=0.75;entryDx=0;entryDy=0;exitX=0;exitY=0.75;exitDx=0;exitDy=0;dashed=1;" edge="1" parent="1" source="SKn-gwGTb66ZYDygB59r-13" target="SKn-gwGTb66ZYDygB59r-21">
          <mxGeometry relative="1" as="geometry" />
        </mxCell>
        <mxCell id="SKn-gwGTb66ZYDygB59r-42" style="edgeStyle=orthogonalEdgeStyle;rounded=0;orthogonalLoop=1;jettySize=auto;html=1;entryX=0.25;entryY=0;entryDx=0;entryDy=0;exitX=0.285;exitY=1.012;exitDx=0;exitDy=0;exitPerimeter=0;endArrow=open;endFill=0;" edge="1" parent="1" source="SKn-gwGTb66ZYDygB59r-13" target="SKn-gwGTb66ZYDygB59r-14">
          <mxGeometry relative="1" as="geometry" />
        </mxCell>
        <mxCell id="SKn-gwGTb66ZYDygB59r-13" value="BookReaderService" style="rounded=0;whiteSpace=wrap;html=1;" vertex="1" parent="1">
          <mxGeometry x="250" y="257" width="140" height="60" as="geometry" />
        </mxCell>
        <mxCell id="SKn-gwGTb66ZYDygB59r-43" style="edgeStyle=orthogonalEdgeStyle;rounded=0;orthogonalLoop=1;jettySize=auto;html=1;entryX=0.75;entryY=1;entryDx=0;entryDy=0;exitX=0.75;exitY=0;exitDx=0;exitDy=0;" edge="1" parent="1" source="SKn-gwGTb66ZYDygB59r-14" target="SKn-gwGTb66ZYDygB59r-13">
          <mxGeometry relative="1" as="geometry">
            <Array as="points">
              <mxPoint x="355" y="350" />
            </Array>
          </mxGeometry>
        </mxCell>
        <mxCell id="SKn-gwGTb66ZYDygB59r-14" value="S3BucketService" style="rounded=0;whiteSpace=wrap;html=1;" vertex="1" parent="1">
          <mxGeometry x="255" y="350" width="135" height="60" as="geometry" />
        </mxCell>
        <mxCell id="SKn-gwGTb66ZYDygB59r-35" style="edgeStyle=orthogonalEdgeStyle;rounded=0;orthogonalLoop=1;jettySize=auto;html=1;entryX=0.75;entryY=1;entryDx=0;entryDy=0;exitX=0.75;exitY=0;exitDx=0;exitDy=0;" edge="1" parent="1" source="SKn-gwGTb66ZYDygB59r-16" target="SKn-gwGTb66ZYDygB59r-12">
          <mxGeometry relative="1" as="geometry" />
        </mxCell>
        <mxCell id="SKn-gwGTb66ZYDygB59r-16" value="RoadmapTaskRepository" style="rounded=0;whiteSpace=wrap;html=1;" vertex="1" parent="1">
          <mxGeometry x="-285" y="350" width="145" height="60" as="geometry" />
        </mxCell>
        <mxCell id="SKn-gwGTb66ZYDygB59r-32" style="edgeStyle=orthogonalEdgeStyle;rounded=0;orthogonalLoop=1;jettySize=auto;html=1;entryX=0.75;entryY=1;entryDx=0;entryDy=0;exitX=0.75;exitY=0;exitDx=0;exitDy=0;" edge="1" parent="1" source="SKn-gwGTb66ZYDygB59r-17" target="SKn-gwGTb66ZYDygB59r-21">
          <mxGeometry relative="1" as="geometry" />
        </mxCell>
        <mxCell id="SKn-gwGTb66ZYDygB59r-17" value="BookRepository" style="rounded=0;whiteSpace=wrap;html=1;" vertex="1" parent="1">
          <mxGeometry x="-37.5" y="350" width="120" height="60" as="geometry" />
        </mxCell>
        <mxCell id="SKn-gwGTb66ZYDygB59r-24" style="edgeStyle=orthogonalEdgeStyle;rounded=0;orthogonalLoop=1;jettySize=auto;html=1;entryX=0.25;entryY=0;entryDx=0;entryDy=0;exitX=0.25;exitY=1;exitDx=0;exitDy=0;endArrow=open;endFill=0;" edge="1" parent="1" source="SKn-gwGTb66ZYDygB59r-21" target="SKn-gwGTb66ZYDygB59r-17">
          <mxGeometry relative="1" as="geometry" />
        </mxCell>
        <mxCell id="SKn-gwGTb66ZYDygB59r-30" style="edgeStyle=orthogonalEdgeStyle;rounded=0;orthogonalLoop=1;jettySize=auto;html=1;entryX=1;entryY=0.75;entryDx=0;entryDy=0;exitX=0;exitY=0.75;exitDx=0;exitDy=0;dashed=1;dashPattern=8 8;" edge="1" parent="1" source="SKn-gwGTb66ZYDygB59r-21" target="SKn-gwGTb66ZYDygB59r-12">
          <mxGeometry relative="1" as="geometry" />
        </mxCell>
        <mxCell id="SKn-gwGTb66ZYDygB59r-37" style="edgeStyle=orthogonalEdgeStyle;rounded=0;orthogonalLoop=1;jettySize=auto;html=1;entryX=0;entryY=0.25;entryDx=0;entryDy=0;exitX=1;exitY=0.25;exitDx=0;exitDy=0;dashed=1;endArrow=open;endFill=0;" edge="1" parent="1" source="SKn-gwGTb66ZYDygB59r-21" target="SKn-gwGTb66ZYDygB59r-13">
          <mxGeometry relative="1" as="geometry" />
        </mxCell>
        <mxCell id="SKn-gwGTb66ZYDygB59r-40" value="If necessary" style="edgeLabel;html=1;align=center;verticalAlign=middle;resizable=0;points=[];fontFamily=Courier New;" vertex="1" connectable="0" parent="SKn-gwGTb66ZYDygB59r-37">
          <mxGeometry x="-0.3438" y="3" relative="1" as="geometry">
            <mxPoint x="22" as="offset" />
          </mxGeometry>
        </mxCell>
        <mxCell id="SKn-gwGTb66ZYDygB59r-21" value="BookService" style="rounded=0;whiteSpace=wrap;html=1;" vertex="1" parent="1">
          <mxGeometry x="-37.5" y="257" width="135" height="60" as="geometry" />
        </mxCell>
        <mxCell id="SKn-gwGTb66ZYDygB59r-36" style="edgeStyle=orthogonalEdgeStyle;rounded=0;orthogonalLoop=1;jettySize=auto;html=1;entryX=0;entryY=0.75;entryDx=0;entryDy=0;exitX=1;exitY=0.75;exitDx=0;exitDy=0;" edge="1" parent="1" source="SKn-gwGTb66ZYDygB59r-27" target="SKn-gwGTb66ZYDygB59r-12">
          <mxGeometry relative="1" as="geometry" />
        </mxCell>
        <mxCell id="SKn-gwGTb66ZYDygB59r-27" value="TaskStatusRepository" style="rounded=0;whiteSpace=wrap;html=1;" vertex="1" parent="1">
          <mxGeometry x="-460" y="257" width="145" height="60" as="geometry" />
        </mxCell>
      </root>
    </mxGraphModel>
  </diagram>
</mxfile>
